<svg xmlns="http://www.w3.org/2000/svg" xmlns:xlink="http://www.w3.org/1999/xlink" viewBox="0 0 1366 730.69"><defs><style>.cls-1{fill:url(#linear-gradient);}</style><linearGradient id="linear-gradient" x1="1024.58" y1="141.05" x2="26.16" y2="717.49" gradientUnits="userSpaceOnUse"><stop offset="0" stop-color="#2aa9ff"/><stop offset="1" stop-color="#3fffec"/></linearGradient></defs><title>bg</title><g id="Layer_2" data-name="Layer 2"><g id="Layer_1-2" data-name="Layer 1"><path class="cls-1" d="M187,721.25c10.28,4.55,20.83,9.73,32.07,9.43,10-.27,19.39-4.9,28.55-9,80-36,174.5-38.52,256.35-6.89,10.51,4.07,21.36,8.76,32.59,7.71,9.32-.87,17.77-5.61,26.09-9.9,89.89-46.45,201-49.52,293.32-8.12,8.56,3.84,17.25,8.11,26.62,8.59,11.87.61,23.07-4.89,33.93-9.7,85-37.56,185.8-37.45,270.69.29,10.13,4.5,20.52,9.62,31.6,9.41,10.06-.19,19.43-4.76,28.63-8.83A329.11,329.11,0,0,1,1366,676.52V263s-59-135-336-135S683,0,683,0H0V697.77C61.77,688,126.72,694.55,187,721.25Z"/></g></g></svg>